<svg width="56" height="56" viewBox="0 0 56 56" fill="none" xmlns="http://www.w3.org/2000/svg">
<g clip-path="url(#clip0_3044_3863)">
<path d="M26.043 0.0491257C21.1885 0.419689 16.7127 1.93336 12.6978 4.55244C9.50979 6.63137 6.63746 9.50169 4.56686 12.6735C-0.830593 20.9327 -1.49344 31.4907 2.84346 40.2963C6.73215 48.1975 14.0992 53.8377 22.6972 55.5021C25.538 56.0485 28.5934 56.149 31.5352 55.7847C32.5137 55.6654 34.3002 55.3137 35.2282 55.0624C40.613 53.599 45.335 50.6596 49.0406 46.464C56.0857 38.4875 57.9606 27.0565 53.8446 17.2145C50.0443 8.13876 41.6672 1.64444 31.9771 0.275234C30.2852 0.0365639 27.5834 -0.0702095 26.043 0.0491257ZM29.8055 2.49863C34.3002 2.85035 38.2646 4.19444 41.9513 6.60625C47.879 10.4941 51.9319 16.6241 53.1565 23.5455C53.4343 25.1345 53.5227 26.2023 53.5227 27.9986C53.529 30.379 53.3396 31.9366 52.7778 34.1914C50.7451 42.3564 44.7668 49.0266 36.8379 51.9786C30.0201 54.516 22.3059 53.9758 15.9047 50.5026C9.0237 46.7718 4.1944 40.1016 2.84346 32.4516C2.5657 30.8626 2.47732 29.7949 2.47732 27.9986C2.47101 25.6182 2.66039 24.0605 3.22223 21.7932C4.37747 17.158 6.80159 12.975 10.2673 9.6273C14.579 5.46315 20.0774 2.98853 26.0746 2.50491C27.0089 2.42954 28.8775 2.42954 29.8055 2.49863Z" fill="#E90000"/>
<path d="M24.8437 4.61526C22.9625 4.92302 22.0661 5.12401 20.7341 5.5511C15.9363 7.08989 11.6626 10.2114 8.73342 14.3253C4.54172 20.2041 3.29809 27.785 5.40026 34.6939C5.6654 35.5669 6.34087 37.3569 6.40399 37.3569C6.42293 37.3569 10.6462 30.1152 15.7848 21.2719C20.9235 12.4223 25.2098 5.04864 25.3045 4.87906L25.4876 4.5713L25.2414 4.57758C25.1088 4.58386 24.9321 4.6027 24.8437 4.61526Z" fill="#E90000"/>
<path d="M30.6703 4.83509C30.8029 5.06748 37.0084 15.7511 47.0647 33.0672C48.4346 35.4287 49.5772 37.3569 49.5961 37.3569C49.6592 37.3569 50.3347 35.5669 50.5998 34.6939C51.0165 33.3372 51.3132 31.8675 51.4963 30.2911C51.6162 29.2422 51.5973 26.353 51.4584 25.235C50.5683 17.8865 46.4965 11.5995 40.1521 7.76821C38.5929 6.8261 36.396 5.86514 34.66 5.36896C33.3974 5.00467 31.2385 4.57758 30.664 4.5713H30.5125L30.6703 4.83509Z" fill="#E90000"/>
<path d="M17.7796 22.2266C11.5741 32.9102 7.616 39.7751 7.65387 39.8127C7.68544 39.8441 9.12476 39.863 11.1701 39.8567L14.6232 39.8379L18.9664 32.3637L23.3096 24.8896L26.7312 24.8708C28.6061 24.8645 30.1464 24.8394 30.1464 24.8268C30.1464 24.808 29.4015 23.5141 28.4925 21.9502C27.5897 20.3926 26.8322 19.0611 26.8132 19.0045C26.8006 18.9417 27.7791 17.1957 29.1616 14.809L31.5415 10.7202L29.7929 7.70543C28.8333 6.05359 28.0253 4.69694 28.0001 4.69694C27.9811 4.69694 23.3791 12.5856 17.7796 22.2266Z" fill="#E90000"/>
<path d="M30.9987 15.9457C29.6162 18.3261 29.2564 18.9918 29.3069 19.0735C29.5405 19.4503 33.8711 26.937 33.8711 26.9622C33.8711 26.981 31.7752 26.9998 29.2185 27.0061L24.566 27.025L22.8426 29.9769C21.902 31.5974 21.1255 32.9477 21.1255 32.9729C21.1192 33.0043 24.7932 33.0231 29.2816 33.0231L37.4378 33.0294L39.42 36.4524L41.4022 39.8691L44.8806 39.8566C48.0433 39.8377 48.359 39.8315 48.3526 39.7372C48.3463 39.6242 32.8484 12.9309 32.7916 12.9246C32.7726 12.9246 31.9646 14.2875 30.9987 15.9457Z" fill="#E90000"/>
<path d="M18.4992 37.451C17.7733 38.7135 17.1672 39.7749 17.1546 39.8063C17.1357 39.8503 20.816 39.8691 27.9937 39.8691C33.9719 39.8691 38.858 39.8503 38.858 39.8315C38.858 39.8063 38.252 38.7512 37.5197 37.4762L36.1751 35.1586L28 35.1648H19.8249L18.4992 37.451Z" fill="#E90000"/>
<path d="M9.22575 42.1429C9.42144 42.4758 10.5199 43.7194 11.3595 44.5484C14.6611 47.8333 18.8654 50.063 23.3917 50.9485C28.1768 51.8844 33.1639 51.3317 37.5955 49.3784C40.2532 48.2038 42.5574 46.6211 44.6658 44.517C45.4802 43.7131 46.5849 42.4695 46.7743 42.1429C46.8122 42.0864 43.0371 42.0675 28 42.0675C12.9629 42.0675 9.18787 42.0864 9.22575 42.1429Z" fill="#E90000"/>
</g>
<defs>
<clipPath id="clip0_3044_3863">
<rect width="56" height="56" fill="white"/>
</clipPath>
</defs>
</svg>
