<svg preserveAspectRatio="none" width="100%" height="100%" overflow="visible" style="display: block;" viewBox="0 0 20 20" fill="none" xmlns="http://www.w3.org/2000/svg">
<g id="ion:ticket-outline" clip-path="url(#clip0_4786_8883)">
<path id="Vector" d="M14.2988 5.70313C13.9739 5.37805 13.7836 4.94229 13.7661 4.48298C13.7485 4.02367 13.9051 3.57467 14.2043 3.22578C14.229 3.19676 14.2419 3.15947 14.2403 3.12136C14.2387 3.08326 14.2228 3.04716 14.1957 3.02031L12.4719 1.29453C12.4434 1.26605 12.4047 1.25005 12.3645 1.25005C12.3242 1.25005 12.2855 1.26605 12.257 1.29453L9.50938 4.04219C9.40797 4.14352 9.3316 4.26711 9.28633 4.40313C9.2412 4.53945 9.16492 4.66337 9.06355 4.76508C8.96219 4.86679 8.83851 4.94348 8.70234 4.98906C8.56625 5.03441 8.44255 5.11077 8.34102 5.21211L1.29453 12.257C1.26605 12.2855 1.25005 12.3242 1.25005 12.3645C1.25005 12.4047 1.26605 12.4434 1.29453 12.4719L3.01836 14.1957C3.04521 14.2228 3.0813 14.2387 3.11941 14.2403C3.15751 14.2419 3.19481 14.229 3.22383 14.2043C3.57264 13.9047 4.02174 13.748 4.48121 13.7654C4.94068 13.7828 5.37661 13.9731 5.70174 14.2983C6.02687 14.6234 6.21719 15.0593 6.23462 15.5188C6.25204 15.9783 6.09527 16.4274 5.7957 16.7762C5.77095 16.8052 5.75809 16.8425 5.75968 16.8806C5.76127 16.9187 5.77721 16.9548 5.8043 16.9816L7.52813 18.7055C7.55662 18.734 7.59526 18.75 7.63555 18.75C7.67584 18.75 7.71447 18.734 7.74297 18.7055L14.7898 11.659C14.8912 11.5575 14.9675 11.4338 15.0129 11.2977C15.058 11.1613 15.1343 11.0374 15.2357 10.9357C15.337 10.834 15.4607 10.7573 15.5969 10.7117C15.7329 10.6664 15.8565 10.5901 15.9578 10.4887L18.7055 7.74102C18.734 7.71252 18.75 7.67388 18.75 7.63359C18.75 7.59331 18.734 7.55467 18.7055 7.52617L16.9816 5.80234C16.9548 5.77526 16.9187 5.75932 16.8806 5.75773C16.8425 5.75613 16.8052 5.769 16.7762 5.79375C16.4278 6.09351 15.979 6.2507 15.5197 6.2339C15.0604 6.21709 14.6244 6.02754 14.2988 5.70313Z" stroke="var(--stroke-0, white)" stroke-miterlimit="10"/>
<path id="Vector_2" d="M9.78555 5.48594L9.14062 4.84102M11.5051 7.20547L11.075 6.77578M13.2246 8.92539L12.7949 8.49532M15.1594 10.8598L14.5145 10.2148" stroke="var(--stroke-0, white)" stroke-miterlimit="10" stroke-linecap="round"/>
</g>
<defs>
<clipPath id="clip0_4786_8883">
<rect width="20" height="20" fill="white"/>
</clipPath>
</defs>
</svg>
