<svg preserveAspectRatio="none" width="100%" height="100%" overflow="visible" style="display: block;" viewBox="0 0 20 20" fill="none" xmlns="http://www.w3.org/2000/svg">
<g id="fluent:location-arrow-20-regular">
<path id="Vector" d="M17.93 3.362C18.24 2.552 17.446 1.758 16.637 2.069L2.64 7.453C1.734 7.801 1.806 9.106 2.745 9.353L8.718 10.925C8.80352 10.9475 8.88154 10.9924 8.94408 11.0549C9.00662 11.1175 9.05145 11.1955 9.074 11.281L10.646 17.255C10.893 18.193 12.198 18.265 12.546 17.359L17.93 3.362ZM16.996 3.002L11.613 17L10.041 11.027C9.97342 10.7701 9.83884 10.5358 9.65102 10.348C9.4632 10.1602 9.22888 10.0256 8.972 9.958L3 8.386L16.996 3.002Z" fill="var(--fill-0, white)"/>
</g>
</svg>
