<svg preserveAspectRatio="none" width="100%" height="100%" overflow="visible" style="display: block;" viewBox="0 0 56 56" fill="none" xmlns="http://www.w3.org/2000/svg">
<g id="&#208;&#183;&#208;&#176;&#208;&#179;&#209;&#128;&#209;&#131;&#208;&#182;&#208;&#181;&#208;&#189;&#208;&#189;&#208;&#190;&#208;&#181; 1" clip-path="url(#clip0_4786_8900)">
<path id="Vector" d="M36.1151 35.2969H19.8844L17.2088 39.9261H38.793L36.1151 35.2969Z" fill="var(--fill-0, #E30613)"/>
<path id="Vector_2" d="M23.3395 24.9012H30.1042L26.7223 19.05L31.4863 10.8064L27.9968 4.77148L7.74609 39.8065C7.76887 39.8461 7.79127 39.8865 7.81442 39.926H14.6543L23.3395 24.9012Z" fill="var(--fill-0, #E30613)"/>
<path id="Vector_3" d="M4.55273 27.9997C4.55273 31.344 5.25982 34.5244 6.52431 37.4062L25.4482 4.66895C13.7151 5.94723 4.55273 15.9212 4.55273 27.9997Z" fill="var(--fill-0, #E30613)"/>
<path id="Vector_4" d="M28.0011 51.4728C35.6089 51.4728 42.3789 47.8241 46.6663 42.1868H9.33594C13.6229 47.8241 20.3929 51.4728 28.0011 51.4728Z" fill="var(--fill-0, #E30613)"/>
<path id="Vector_5" d="M27.9999 0C12.6416 0 0.148438 12.5612 0.148438 27.9996C0.148438 43.4381 12.6416 56 27.9999 56C43.358 56 55.8513 43.4392 55.8513 27.9996C55.8513 12.5601 43.3573 0 27.9999 0ZM27.9999 53.6107C13.8927 53.6107 2.41569 42.1221 2.41569 27.9996C2.41569 13.8772 13.8927 2.38933 27.9999 2.38933C42.107 2.38933 53.5843 13.8779 53.5843 27.9996C53.5843 42.1213 42.107 53.6107 27.9999 53.6107Z" fill="var(--fill-0, #E30613)"/>
<path id="Vector_6" d="M29.2797 19.0513L33.9318 27.1014H24.6235L21.1582 33.0972H37.3967L41.3477 39.9262H48.1849C48.2085 39.8873 48.2304 39.8471 48.2532 39.8075L32.7655 13.0151L29.2797 19.0513Z" fill="var(--fill-0, #E30613)"/>
<path id="Vector_7" d="M30.5488 4.66846L49.4757 37.4064C50.7409 34.5243 51.4481 31.3435 51.4481 27.9992C51.4481 15.9192 42.2835 5.94489 30.5492 4.66846" fill="var(--fill-0, #E30613)"/>
</g>
<defs>
<clipPath id="clip0_4786_8900">
<rect width="56" height="56" fill="white"/>
</clipPath>
</defs>
</svg>
