<svg preserveAspectRatio="none" width="100%" height="100%" overflow="visible" style="display: block;" viewBox="0 0 40.1854 56.0031" fill="none" xmlns="http://www.w3.org/2000/svg">
<g id="Group">
<path id="Vector" d="M0 11.1694V0H40.1854V11.1694C40.1854 35.3687 35.0658 43.1751 20.0927 56.0031C5.12262 43.1781 0 35.381 0 11.1694Z" fill="var(--fill-0, white)"/>
<path id="Vector_2" d="M39.2736 0.911865V11.1693C39.2736 34.772 34.2826 42.6456 20.0929 54.8004C5.90315 42.6456 0.912109 34.772 0.912109 11.1693V0.911865H39.2736Z" fill="var(--fill-0, #003F78)"/>
<g id="Group_2">
<path id="Vector_3" d="M21.4492 5.47764C22.1775 5.47764 22.6977 6.19064 22.4712 6.88223L20.8341 11.9222H18.998L20.1455 8.39086L14.9219 11.9161C14.5792 12.1456 14.1202 12.0814 13.854 11.7662C13.5479 11.3989 13.6245 10.8481 14.0192 10.5819L19.1969 7.09031H15.1759L15.6992 5.47764H21.4492Z" fill="var(--fill-0, #36BCEE)"/>
<path id="Vector_4" d="M34.9731 6.48746L33.2074 11.9253H31.3714L33.3115 5.94889C33.4277 5.59085 33.7644 5.34604 34.1408 5.34604C34.7375 5.34604 35.1567 5.9244 34.9731 6.48746ZM7.33725 5.47763L5.24414 11.9222H7.08021L8.65004 7.09031H12.3987L9.84654 8.81315C9.47627 9.06102 9.35387 9.56594 9.59867 9.93927C9.8496 10.3187 10.3545 10.4136 10.7217 10.1657L13.9012 8.02058C15.0365 7.25555 14.4949 5.47763 13.1239 5.48069H7.33725V5.47763ZM30.4288 5.47763H24.6422L22.5491 11.9222H24.3851L25.955 7.09031H29.7036L26.3864 9.32725L28.4367 11.7753C28.7029 12.0905 29.162 12.1548 29.5047 11.9253C29.9025 11.6591 29.979 11.1052 29.6699 10.741L28.7672 9.66386L31.2061 8.02058C32.3414 7.25249 31.7967 5.47763 30.4288 5.47763Z" fill="var(--fill-0, white)"/>
</g>
<g id="Group_3">
<path id="Vector_5" d="M18.2637 14.2081H13.698V21.0199L10.0442 23.4833V14.2051H5.47852V22.8162C5.47852 24.686 5.66518 26.5526 6.0477 28.3795L18.2637 20.1386V14.2081Z" fill="var(--fill-0, white)"/>
<path id="Vector_6" d="M6.04688 28.3855C6.10502 28.6671 6.16928 28.9455 6.2366 29.224C6.81802 31.6231 7.56469 33.756 8.48884 35.7237C8.95704 36.7243 9.47726 37.6852 10.0464 38.6216V27.8898L13.7002 25.4264V43.582C15.0558 45.1519 16.5767 46.6972 18.2659 48.2793V20.1416L6.04688 28.3855Z" fill="var(--fill-0, #36BCEE)"/>
</g>
<g id="Group_4">
<path id="Vector_7" d="M34.7049 14.2081H30.1392V21.0199L26.4854 23.4863V14.2081H21.9197V28.7681L34.7049 20.1447V14.2081Z" fill="var(--fill-0, white)"/>
<path id="Vector_8" d="M21.9197 28.7681V48.2824C23.6089 46.7003 25.1298 45.1549 26.4854 43.5851V27.8929L30.1392 25.4295V38.6247C30.7084 37.6883 31.2255 36.7274 31.6968 35.7268C32.6209 33.7591 33.3645 31.6231 33.949 29.2271C34.4601 27.1309 34.7079 24.9796 34.7079 22.8223V20.1477L21.9197 28.7681Z" fill="var(--fill-0, #36BCEE)"/>
</g>
</g>
</svg>
