<svg width="20" height="20" viewBox="0 0 20 20" fill="none" xmlns="http://www.w3.org/2000/svg">
<path d="M17.93 3.36205C18.24 2.55205 17.446 1.75805 16.637 2.06905L2.63999 7.45305C1.73399 7.80105 1.80599 9.10605 2.74499 9.35305L8.71799 10.9251C8.80351 10.9476 8.88152 10.9924 8.94407 11.055C9.00661 11.1175 9.05144 11.1955 9.07399 11.2811L10.646 17.255C10.893 18.1931 12.198 18.265 12.546 17.359L17.93 3.36205ZM16.996 3.00205L11.613 17.0001L10.041 11.0271C9.97341 10.7702 9.83883 10.5358 9.65101 10.348C9.46319 10.1602 9.22887 10.0256 8.97199 9.95805L2.99999 8.38605L16.996 3.00205Z" fill="white"/>
</svg>
