<svg width="17" height="17" viewBox="0 0 17 17" fill="none" xmlns="http://www.w3.org/2000/svg">
<path d="M6.2869 16.6117C6.08158 16.7291 5.81979 16.6523 5.71051 16.4425L4.614 14.3377L2.26523 14.2045C2.03072 14.1912 1.85354 13.9868 1.87369 13.7527L2.07789 11.38L0.170498 9.98309C-0.017898 9.84511 -0.0561311 9.57927 0.0857461 9.39379L1.52717 7.5094L0.669416 5.29054C0.585032 5.07225 0.696929 4.8273 0.917174 4.74817L3.13519 3.95131L3.60066 1.61788C3.64679 1.38661 3.87548 1.23969 4.105 1.29387L6.39488 1.8344L8.03277 0.128123C8.19676 -0.0427078 8.46996 -0.0427078 8.63395 0.128123L10.2718 1.8344L12.5617 1.29387C12.7912 1.23969 13.0199 1.38661 13.0661 1.61788L13.5315 3.95131L15.7495 4.74817C15.9698 4.8273 16.0817 5.07225 15.9973 5.29054L15.1396 7.5094L16.581 9.39379C16.7229 9.57927 16.6846 9.84511 16.4962 9.98309L14.5888 11.38L14.793 13.7527C14.8132 13.9868 14.636 14.1912 14.4015 14.2045L12.0527 14.3377L10.9562 16.4425C10.8469 16.6523 10.5851 16.7291 10.3798 16.6117L8.33336 15.4412L6.2869 16.6117ZM6.24936 15.6732L8.1265 14.5996C8.25466 14.5263 8.41206 14.5263 8.54022 14.5996L10.4174 15.6732L11.4231 13.7426C11.491 13.6123 11.6224 13.5274 11.769 13.5191L13.926 13.3968L13.7385 11.2181C13.726 11.0731 13.79 10.9322 13.9074 10.8462L15.6606 9.56217L14.3357 7.83018C14.2476 7.71493 14.2257 7.56213 14.2781 7.42679L15.0661 5.38813L13.0281 4.65593C12.8906 4.60651 12.789 4.48864 12.7604 4.34531L12.3332 2.20404L10.2317 2.7001C10.0882 2.73397 9.93753 2.68949 9.83542 2.58312L8.33336 1.01835L6.83129 2.58312C6.72919 2.68949 6.57848 2.73397 6.43498 2.7001L4.33348 2.20404L3.90634 4.34531C3.87775 4.48864 3.77615 4.60651 3.63861 4.65593L1.60057 5.38813L2.38866 7.42679C2.44098 7.56213 2.41913 7.71493 2.33097 7.83018L1.00612 9.56217L2.75931 10.8462C2.87669 10.9322 2.94072 11.0731 2.92825 11.2181L2.74074 13.3968L4.89768 13.5191C5.04432 13.5274 5.17576 13.6123 5.24362 13.7426L6.24936 15.6732ZM10.0776 5.17448C10.2114 4.98723 10.4716 4.94386 10.6589 5.07761C10.8461 5.21137 10.8895 5.47159 10.7557 5.65885L6.58908 11.4922C6.45533 11.6794 6.1951 11.7228 6.00784 11.5891C5.82059 11.4553 5.77722 11.1951 5.91097 11.0078L10.0776 5.17448ZM5.83336 5.83333V6.66667H6.66669V5.83333H5.83336ZM5.83336 5H6.66669C7.12693 5 7.50003 5.3731 7.50003 5.83333V6.66667C7.50003 7.1269 7.12693 7.5 6.66669 7.5H5.83336C5.37312 7.5 5.00003 7.1269 5.00003 6.66667V5.83333C5.00003 5.3731 5.37312 5 5.83336 5ZM10 10V10.8333H10.8334V10H10ZM10 9.16667H10.8334C11.2936 9.16667 11.6667 9.53976 11.6667 10V10.8333C11.6667 11.2936 11.2936 11.6667 10.8334 11.6667H10C9.53979 11.6667 9.16669 11.2936 9.16669 10.8333V10C9.16669 9.53976 9.53979 9.16667 10 9.16667Z" fill="white"/>
</svg>
