<svg width="52" height="52" viewBox="0 0 52 52" fill="none" xmlns="http://www.w3.org/2000/svg">
<rect width="52" height="52" rx="26" fill="white"/>
<path d="M33.5753 32.7754H18.4236L15.9258 37.0739H36.0752L33.5753 32.7754Z" fill="#E30613"/>
<path d="M21.6505 23.1226H27.9656L24.8085 17.6893L29.2558 10.0345L25.9983 4.43066L7.09375 36.9632C7.11501 37 7.13592 37.0375 7.15753 37.0741H13.5427L21.6505 23.1226Z" fill="#E30613"/>
<path d="M4.10938 25.9992C4.10938 29.1047 4.76946 32.0579 5.94989 34.7338L23.6158 4.33496C12.6626 5.52194 4.10938 14.7835 4.10938 25.9992Z" fill="#E30613"/>
<path d="M26.0025 47.7956C33.1046 47.7956 39.4245 44.4075 43.4269 39.1729H8.57812C12.5801 44.4075 18.9001 47.7956 26.0025 47.7956Z" fill="#E30613"/>
<path d="M26 0C11.6627 0 0 11.6639 0 25.9996C0 40.3354 11.6627 52 26 52C40.3372 52 52 40.3364 52 25.9996C52 11.6629 40.3365 0 26 0ZM26 49.7813C12.8306 49.7813 2.11654 39.1134 2.11654 25.9996C2.11654 12.8859 12.8306 2.21867 26 2.21867C39.1693 2.21867 49.8837 12.8866 49.8837 25.9996C49.8837 39.1127 39.1693 49.7813 26 49.7813Z" fill="#E30613"/>
<path d="M27.191 17.69L31.5338 25.1651H22.8443L19.6094 30.7326H34.7684L38.4568 37.0738H44.8394C44.8615 37.0377 44.8819 37.0003 44.9033 36.9636L30.445 12.085L27.191 17.69Z" fill="#E30613"/>
<path d="M28.3828 4.33496L46.0515 34.7345C47.2326 32.0583 47.8927 29.1047 47.8927 25.9992C47.8927 14.7821 39.3374 5.52022 28.3832 4.33496" fill="#E30613"/>
</svg>
