<svg xmlns="http://www.w3.org/2000/svg" width="320" height="554" viewBox="0 0 320 554" fill="none">
  <defs>
    <pattern id="iskra" patternUnits="userSpaceOnUse" width="71" height="71" patternTransform="rotate(-48 35.5 35.5)">
      <path
        d="M4 52l10-18 8 14 6-16 12 12 4-20 14 18 6-14 10 10"
        stroke="rgb(0 0 0 / 0.16)"
        stroke-width="0.55"
        stroke-linecap="round"
        stroke-linejoin="round"
      />
      <path
        d="M38 8l-6 14 12 4-8 16 8-2 6 14-10-6-4 12"
        stroke="rgb(0 0 0 / 0.13)"
        stroke-width="0.5"
        stroke-linecap="round"
        stroke-linejoin="round"
      />
      <path
        d="M52 44l16-10-4 14 12-6-8 16 12-4"
        stroke="rgb(0 0 0 / 0.14)"
        stroke-width="0.45"
        stroke-linecap="round"
        stroke-linejoin="round"
      />
      <path
        d="M0 24l8 6-4 10 12-8"
        stroke="rgb(0 0 0 / 0.1)"
        stroke-width="0.45"
        stroke-linecap="round"
        stroke-linejoin="round"
      />
    </pattern>
  </defs>
  <rect width="320" height="554" fill="url(#iskra)" />
</svg>
